<svg width="34" height="35" viewBox="0 0 34 35" fill="none" xmlns="http://www.w3.org/2000/svg">
<g id="pin-drop">
<path id="Icon" d="M7.08301 28.8333H26.9163M16.9997 11.8333H17.0138M11.9605 6.79851C13.355 5.43283 15.0347 4.75 16.9997 4.75C18.9646 4.75 20.6364 5.42507 22.0151 6.77523C23.3937 8.1254 24.083 9.76264 24.083 11.687C24.083 12.6492 23.8374 13.751 23.3462 14.9926C22.8549 16.2341 22.2607 17.398 21.5634 18.4844C20.8662 19.5707 20.1769 20.5872 19.4955 21.5338C18.8141 22.4805 18.2357 23.2332 17.7603 23.7919L16.9997 24.5833C16.8095 24.3661 16.556 24.079 16.239 23.722C15.9221 23.3651 15.3517 22.6512 14.5276 21.5804C13.7036 20.5096 12.9826 19.4698 12.3646 18.4611C11.7466 17.4523 11.1841 16.3117 10.677 15.0391C10.1699 13.7666 9.91634 12.6492 9.91634 11.687C9.91634 9.76264 10.5977 8.13316 11.9605 6.79851Z" stroke="#1B426F" stroke-width="2.7" stroke-linecap="round" stroke-linejoin="round"/>
</g>
</svg>
