<svg width="14" height="15" viewBox="0 0 14 15" fill="none" xmlns="http://www.w3.org/2000/svg">
<path d="M8.57949 7.4621C8.74594 7.18875 8.91799 6.90611 9.08793 6.61469C9.65672 5.63963 9.7611 4.65716 9.39826 3.69451C8.66613 1.7522 6.21877 0.568766 5.65219 0.379946L5.25379 0.247055L4.63197 1.49092L4.93205 1.73607C4.93541 1.73876 5.26871 2.02999 5.29092 2.47149C5.3099 2.84837 5.10328 3.25564 4.67698 3.68207C4.38093 3.97809 4.05601 4.26433 3.712 4.56733C2.26457 5.84201 0.624023 7.28717 0.624023 10.0211C0.624023 10.0586 0.624377 10.096 0.625083 10.1331C0.635572 10.7364 0.765146 11.3316 1.00636 11.8847C1.24758 12.4378 1.59568 12.9378 2.03068 13.3559C2.90418 14.2055 4.07538 14.6797 5.29392 14.6771H8.08127L7.7372 13.9789C6.33919 11.1416 7.32784 9.51781 8.57949 7.4621Z" fill="#FF1111"/>
<path d="M13.3344 9.99005C13.3263 9.95805 13.3179 9.92592 13.3092 9.89365C12.9597 8.6125 11.0255 6.96521 10.8061 6.78159L10.3656 6.41291L10.0766 6.90949C9.41831 8.04138 8.85333 9.07376 8.60704 10.245C8.32621 11.5807 8.51524 12.9382 9.18509 14.3952L9.31465 14.6771H9.64387C10.2237 14.6788 10.7962 14.5473 11.3173 14.2928C11.8383 14.0384 12.294 13.6677 12.6491 13.2093C13.0021 12.7609 13.2475 12.2375 13.3663 11.6794C13.4851 11.1213 13.4742 10.5433 13.3344 9.99005Z" fill="#FF1111"/>
</svg>
