<svg width="14" height="15" viewBox="0 0 14 15" fill="none" xmlns="http://www.w3.org/2000/svg">
<path d="M8.6957 7.4621C8.86215 7.18875 9.0342 6.90611 9.20414 6.61469C9.77293 5.63963 9.87731 4.65716 9.51447 3.69451C8.78234 1.7522 6.33498 0.568766 5.7684 0.379946L5.37 0.247055L4.74818 1.49092L5.04826 1.73607C5.05162 1.73876 5.38492 2.02999 5.40713 2.47149C5.42611 2.84837 5.21949 3.25564 4.79319 3.68207C4.49714 3.97809 4.17222 4.26433 3.82821 4.56733C2.38078 5.84201 0.740234 7.28717 0.740234 10.0211C0.740234 10.0586 0.740587 10.096 0.741294 10.1331C0.751783 10.7364 0.881357 11.3316 1.12257 11.8847C1.36379 12.4378 1.71189 12.9378 2.1469 13.3559C3.02039 14.2055 4.19159 14.6797 5.41013 14.6771H8.19748L7.85341 13.9789C6.4554 11.1416 7.44405 9.51781 8.6957 7.4621Z" fill="#8411FF"/>
<path d="M13.4506 9.99005C13.4425 9.95805 13.4341 9.92592 13.4254 9.89365C13.0759 8.6125 11.1417 6.96521 10.9223 6.78159L10.4818 6.41291L10.1929 6.90949C9.53452 8.04138 8.96954 9.07376 8.72325 10.245C8.44242 11.5807 8.63146 12.9382 9.3013 14.3952L9.43086 14.6771H9.76008C10.3399 14.6788 10.9124 14.5473 11.4335 14.2928C11.9545 14.0384 12.4102 13.6677 12.7653 13.2093C13.1183 12.7609 13.3637 12.2375 13.4825 11.6794C13.6013 11.1213 13.5904 10.5433 13.4506 9.99005Z" fill="#8411FF"/>
</svg>
