<svg width="14" height="15" viewBox="0 0 14 15" fill="none" xmlns="http://www.w3.org/2000/svg">
<path d="M8.75624 7.4621C8.9227 7.18875 9.09475 6.90611 9.26469 6.61469C9.83348 5.63963 9.93786 4.65716 9.57502 3.69451C8.84289 1.7522 6.39553 0.568766 5.82895 0.379946L5.43054 0.247055L4.80873 1.49092L5.1088 1.73607C5.11216 1.73876 5.44546 2.02999 5.46768 2.47149C5.48665 2.84837 5.28004 3.25564 4.85373 3.68207C4.55769 3.97809 4.23277 4.26433 3.88875 4.56733C2.44133 5.84201 0.800781 7.28717 0.800781 10.0211C0.800781 10.0586 0.801134 10.096 0.801841 10.1331C0.81233 10.7364 0.941904 11.3316 1.18312 11.8847C1.42434 12.4378 1.77244 12.9378 2.20744 13.3559C3.08094 14.2055 4.25214 14.6797 5.47067 14.6771H8.25803L7.91395 13.9789C6.51595 11.1416 7.5046 9.51781 8.75624 7.4621Z" fill="#FF6C11"/>
<path d="M13.5112 9.99005C13.5031 9.95805 13.4947 9.92592 13.4859 9.89365C13.1365 8.6125 11.2023 6.96521 10.9829 6.78159L10.5423 6.41291L10.2534 6.90949C9.59506 8.04138 9.03009 9.07376 8.78379 10.245C8.50297 11.5807 8.692 12.9382 9.36185 14.3952L9.49141 14.6771H9.82062C10.4005 14.6788 10.973 14.5473 11.494 14.2928C12.0151 14.0384 12.4707 13.6677 12.8259 13.2093C13.1789 12.7609 13.4242 12.2375 13.5431 11.6794C13.6619 11.1213 13.651 10.5433 13.5112 9.99005Z" fill="#FF6C11"/>
</svg>
