<svg width="10" height="15" viewBox="0 0 10 15" fill="none" xmlns="http://www.w3.org/2000/svg">
<path d="M6.00746 6.55519H6.0071H3.40382C3.08993 6.55519 2.7889 6.4305 2.56694 6.20854C2.34499 5.98659 2.2203 5.68556 2.2203 5.37167C2.2203 5.05778 2.34499 4.75675 2.56694 4.53479C2.7889 4.31284 3.08993 4.18815 3.40382 4.18815H7.56906H7.88965V3.86756V2.82625V2.50566H7.56906H5.67687V0.888237V0.567649H5.35628H4.31497H3.99438V0.888237V2.50566H3.40382C2.64371 2.50566 1.91473 2.80761 1.37724 3.34509C0.839764 3.88257 0.53781 4.61155 0.53781 5.37167C0.53781 6.13178 0.839764 6.86076 1.37724 7.39824C1.91473 7.93572 2.64371 8.23768 3.40382 8.23768H6.00674C6.32061 8.23803 6.62153 8.36287 6.84348 8.58482C7.06542 8.80676 7.19026 9.10768 7.19062 9.42156V9.53655C7.19026 9.85043 7.06542 10.1513 6.84348 10.3733C6.62153 10.5952 6.32061 10.7201 6.00674 10.7204H1.60082H1.28023V11.041V12.0823V12.4029H1.60082H3.99438V13.9046V14.2252H4.31497H5.35628H5.67687V13.9046V12.4029H6.0071H6.00746C6.76721 12.4021 7.4956 12.0999 8.03283 11.5626C8.57006 11.0254 8.87225 10.297 8.8731 9.53727V9.53691V9.4212V9.42084C8.87225 8.66108 8.57006 7.93269 8.03283 7.39546C7.4956 6.85823 6.76721 6.55604 6.00746 6.55519Z" fill="#00CE3A" stroke="#00CE3A" stroke-width="0.641176"/>
</svg>
