<svg width="32" height="32" viewBox="0 0 32 32" fill="none" xmlns="http://www.w3.org/2000/svg">
<path d="M26.667 10.3333H22.667V7.66667C22.667 6.2 21.467 5 20.0003 5H12.0003C10.5337 5 9.33366 6.2 9.33366 7.66667V10.3333H5.33366C3.86699 10.3333 2.66699 11.5333 2.66699 13V26.3333H29.3337V13C29.3337 11.5333 28.1337 10.3333 26.667 10.3333ZM12.0003 7.66667H20.0003V10.3333H12.0003V7.66667ZM26.667 23.6667H5.33366V19.6667H8.00033V21H10.667V19.6667H21.3337V21H24.0003V19.6667H26.667V23.6667ZM24.0003 17V15.6667H21.3337V17H10.667V15.6667H8.00033V17H5.33366V13H26.667V17H24.0003Z" fill="#312F2F"/>
</svg>
