<svg width="21" height="21" viewBox="0 0 21 21" fill="none" xmlns="http://www.w3.org/2000/svg">
<path d="M17.8958 9.18911H6.22917V6.68911C6.22917 5.76994 6.97667 5.02244 7.89583 5.02244C8.815 5.02244 9.5625 5.76994 9.5625 6.68911H11.2292C11.2292 4.85077 9.73417 3.35577 7.89583 3.35577C6.0575 3.35577 4.5625 4.85077 4.5625 6.68911V9.18911H2.89583C2.67482 9.18911 2.46286 9.27691 2.30658 9.43319C2.1503 9.58947 2.0625 9.80143 2.0625 10.0224V11.6891C2.0625 13.8608 3.4575 15.7083 5.39583 16.3974V19.1891H7.0625V16.6891H13.7292V19.1891H15.3958V16.3974C17.3342 15.7083 18.7292 13.8608 18.7292 11.6891V10.0224C18.7292 9.80143 18.6414 9.58947 18.4851 9.43319C18.3288 9.27691 18.1168 9.18911 17.8958 9.18911ZM17.0625 11.6891C17.0625 13.5274 15.5675 15.0224 13.7292 15.0224H7.0625C5.22417 15.0224 3.72917 13.5274 3.72917 11.6891V10.8558H17.0625V11.6891Z" fill="#119BFF"/>
</svg>
