<svg width="21" height="21" viewBox="0 0 21 21" fill="none" xmlns="http://www.w3.org/2000/svg">
<path d="M17.8958 9.83895V7.52228C17.8958 6.14728 16.7708 5.02228 15.3958 5.02228H12.0625C11.4208 5.02228 10.8375 5.27228 10.3958 5.67228C9.95417 5.27228 9.37083 5.02228 8.72917 5.02228H5.39583C4.02083 5.02228 2.89583 6.14728 2.89583 7.52228V9.83895C2.3875 10.2973 2.0625 10.9556 2.0625 11.6889V16.6889H3.72917V15.0223H17.0625V16.6889H18.7292V11.6889C18.7292 10.9556 18.4042 10.2973 17.8958 9.83895ZM12.0625 6.68894H15.3958C15.8542 6.68894 16.2292 7.06395 16.2292 7.52228V9.18895H11.2292V7.52228C11.2292 7.06395 11.6042 6.68894 12.0625 6.68894ZM4.5625 7.52228C4.5625 7.06395 4.9375 6.68894 5.39583 6.68894H8.72917C9.1875 6.68894 9.5625 7.06395 9.5625 7.52228V9.18895H4.5625V7.52228ZM3.72917 13.3556V11.6889C3.72917 11.2306 4.10417 10.8556 4.5625 10.8556H16.2292C16.6875 10.8556 17.0625 11.2306 17.0625 11.6889V13.3556H3.72917Z" fill="#119BFF"/>
</svg>
