<svg width="23" height="23" viewBox="0 0 23 23" fill="none" xmlns="http://www.w3.org/2000/svg">
<path d="M10.2054 18.6705L19.3721 18.6705L19.3721 9.67051C19.3721 8.56594 18.4766 7.67051 17.3721 7.67051L13.8721 7.67051M10.2054 15.0038L10.2146 15.0038M15.7054 15.0038L15.7146 15.0038M6.53874 15.0038L6.5479 15.0038M10.2054 11.3372L10.2146 11.3372M15.7054 11.3372L15.7146 11.3372M6.53874 11.3372L6.5479 11.3372M10.2054 7.67051L10.2146 7.67051M6.53874 7.67051L6.5479 7.67051M13.8721 18.6705L13.8721 6.00385C13.8721 4.89928 12.9766 4.00385 11.8721 4.00385L4.87207 4.00385C3.7675 4.00385 2.87207 4.89928 2.87207 6.00385L2.87207 18.6705L13.8721 18.6705Z" stroke="black" stroke-width="2" stroke-linecap="round" stroke-linejoin="round"/>
</svg>
