<svg width="17" height="17" viewBox="0 0 17 17" fill="none" xmlns="http://www.w3.org/2000/svg">
<path fill-rule="evenodd" clip-rule="evenodd" d="M5.33817 3.65942C6.22572 2.79976 7.2948 2.36993 8.54543 2.36993C9.79607 2.36993 10.8601 2.79487 11.7376 3.64477C12.615 4.49466 13.0538 5.52527 13.0538 6.73661C13.0538 7.34228 12.8974 8.03586 12.5848 8.81737C12.2721 9.59889 11.8939 10.3315 11.4501 11.0154C11.0064 11.6992 10.5676 12.339 10.1339 12.9349C9.70025 13.5308 9.33212 14.0046 9.02955 14.3563L8.54543 14.8545C8.4244 14.7178 8.26303 14.537 8.06132 14.3124C7.8596 14.0877 7.49652 13.6383 6.97206 12.9643C6.4476 12.2902 5.9887 11.6357 5.59536 11.0007C5.20201 10.3657 4.84397 9.64773 4.52122 8.84668C4.19848 8.04563 4.03711 7.34228 4.03711 6.73661C4.03711 5.52527 4.47079 4.49955 5.33817 3.65942Z" stroke="#57B8FF" stroke-width="1.38718" stroke-linecap="round" stroke-linejoin="round"/>
<path d="M9.23902 6.87826C9.23902 7.26132 8.92849 7.57185 8.54543 7.57185C8.16238 7.57185 7.85185 7.26132 7.85185 6.87826C7.85185 6.4952 8.16238 6.18467 8.54543 6.18467C8.92849 6.18467 9.23902 6.4952 9.23902 6.87826Z" stroke="#57B8FF" stroke-width="1.38718" stroke-linecap="round" stroke-linejoin="round"/>
</svg>
