<svg width="134" height="51" viewBox="0 0 134 51" fill="none" xmlns="http://www.w3.org/2000/svg">
<path d="M11.5732 36.2644L61.5732 6.2644L111.573 36.2644" stroke="black" stroke-width="2"/>
<path d="M73.5957 13.2644L84.1069 6.2644L122.618 29.3711" stroke="black" stroke-width="2"/>
<mask id="path-3-inside-1_67_1587" fill="white">
<path d="M56.5957 31.2644C56.5957 28.503 58.8343 26.2644 61.5957 26.2644V26.2644C64.3571 26.2644 66.5957 28.503 66.5957 31.2644V44.2644H56.5957V31.2644Z"/>
</mask>
<path d="M54.5957 31.2644C54.5957 27.3984 57.7297 24.2644 61.5957 24.2644C65.4617 24.2644 68.5957 27.3984 68.5957 31.2644H64.5957C64.5957 29.6076 63.2526 28.2644 61.5957 28.2644C59.9388 28.2644 58.5957 29.6076 58.5957 31.2644H54.5957ZM66.5957 44.2644H56.5957H66.5957ZM54.5957 44.2644V31.2644C54.5957 27.3984 57.7297 24.2644 61.5957 24.2644V28.2644C59.9388 28.2644 58.5957 29.6076 58.5957 31.2644V44.2644H54.5957ZM61.5957 24.2644C65.4617 24.2644 68.5957 27.3984 68.5957 31.2644V44.2644H64.5957V31.2644C64.5957 29.6076 63.2526 28.2644 61.5957 28.2644V24.2644Z" fill="black" mask="url(#path-3-inside-1_67_1587)"/>
</svg>
