<svg width="131" height="46" viewBox="0 0 131 46" fill="none" xmlns="http://www.w3.org/2000/svg">
<path d="M9.35625 46L0.15625 36.8H9.35625V46Z" fill="#74A7F2"/>
<path d="M0.15625 9.2C0.15625 4.11898 4.27523 0 9.35625 0H120.906C125.987 0 130.106 4.11898 130.106 9.2V27.6C130.106 32.681 125.987 36.8 120.906 36.8H0.15625V9.2Z" fill="#74A7F2"/>
<rect width="93" height="19" transform="translate(18.5547 9.19995)" fill="#74A7F2"/>
<path fill-rule="evenodd" clip-rule="evenodd" d="M23.1545 11.0399C23.3985 11.0399 23.6325 11.1368 23.8051 11.3094C23.9776 11.4819 24.0745 11.7159 24.0745 11.9599V12.8799H24.9945C25.2385 12.8799 25.4725 12.9768 25.6451 13.1494C25.8176 13.3219 25.9145 13.5559 25.9145 13.7999C25.9145 14.0439 25.8176 14.2779 25.6451 14.4505C25.4725 14.623 25.2385 14.7199 24.9945 14.7199H24.0745V15.6399C24.0745 15.8839 23.9776 16.1179 23.8051 16.2905C23.6325 16.463 23.3985 16.5599 23.1545 16.5599C22.9105 16.5599 22.6765 16.463 22.504 16.2905C22.3315 16.1179 22.2345 15.8839 22.2345 15.6399V14.7199H21.3145C21.0705 14.7199 20.8365 14.623 20.664 14.4505C20.4915 14.2779 20.3945 14.0439 20.3945 13.7999C20.3945 13.5559 20.4915 13.3219 20.664 13.1494C20.8365 12.9768 21.0705 12.8799 21.3145 12.8799H22.2345V11.9599C22.2345 11.7159 22.3315 11.4819 22.504 11.3094C22.6765 11.1368 22.9105 11.0399 23.1545 11.0399ZM23.1545 20.2399C23.3985 20.2399 23.6325 20.3368 23.8051 20.5094C23.9776 20.6819 24.0745 20.9159 24.0745 21.1599V22.0799H24.9945C25.2385 22.0799 25.4725 22.1768 25.6451 22.3494C25.8176 22.5219 25.9145 22.7559 25.9145 22.9999C25.9145 23.2439 25.8176 23.4779 25.6451 23.6505C25.4725 23.823 25.2385 23.9199 24.9945 23.9199H24.0745V24.8399C24.0745 25.0839 23.9776 25.3179 23.8051 25.4905C23.6325 25.663 23.3985 25.7599 23.1545 25.7599C22.9105 25.7599 22.6765 25.663 22.504 25.4905C22.3315 25.3179 22.2345 25.0839 22.2345 24.8399V23.9199H21.3145C21.0705 23.9199 20.8365 23.823 20.664 23.6505C20.4915 23.4779 20.3945 23.2439 20.3945 22.9999C20.3945 22.7559 20.4915 22.5219 20.664 22.3494C20.8365 22.1768 21.0705 22.0799 21.3145 22.0799H22.2345V21.1599C22.2345 20.9159 22.3315 20.6819 22.504 20.5094C22.6765 20.3368 22.9105 20.2399 23.1545 20.2399ZM29.5945 11.0399C29.7976 11.0399 29.9949 11.107 30.1558 11.2308C30.3168 11.3546 30.4322 11.5281 30.4842 11.7244L31.5689 15.8239L34.6545 17.6032C34.7944 17.6839 34.9105 17.8001 34.9912 17.9399C35.072 18.0798 35.1145 18.2384 35.1145 18.3999C35.1145 18.5614 35.072 18.72 34.9912 18.8599C34.9105 18.9997 34.7944 19.1159 34.6545 19.1966L31.5689 20.9768L30.4833 25.0754C30.4312 25.2715 30.3158 25.4449 30.1549 25.5686C29.9941 25.6922 29.7969 25.7593 29.5941 25.7593C29.3912 25.7593 29.194 25.6922 29.0332 25.5686C28.8724 25.4449 28.757 25.2715 28.7049 25.0754L27.6202 20.9759L24.5345 19.1966C24.3947 19.1159 24.2786 18.9997 24.1978 18.8599C24.1171 18.72 24.0746 18.5614 24.0746 18.3999C24.0746 18.2384 24.1171 18.0798 24.1978 17.9399C24.2786 17.8001 24.3947 17.6839 24.5345 17.6032L27.6202 15.823L28.7058 11.7244C28.7577 11.5283 28.8731 11.3548 29.0338 11.231C29.1945 11.1072 29.3917 11.0401 29.5945 11.0399Z" fill="#FCFCFC"/>
<path d="M42.5483 24.2V13.919H46.3847C47.0839 13.919 47.7003 14.0478 48.2339 14.3054C48.7767 14.5538 49.1999 14.9218 49.5035 15.4094C49.8071 15.8878 49.9589 16.472 49.9589 17.162C49.9589 17.8428 49.8025 18.427 49.4897 18.9146C49.1861 19.393 48.7675 19.761 48.2339 20.0186C47.7003 20.2762 47.0839 20.405 46.3847 20.405H44.4251V24.2H42.5483ZM44.4251 18.749H46.4123C46.7527 18.749 47.0471 18.6846 47.2955 18.5558C47.5439 18.4178 47.7371 18.2292 47.8751 17.99C48.0131 17.7508 48.0821 17.4748 48.0821 17.162C48.0821 16.84 48.0131 16.564 47.8751 16.334C47.7371 16.0948 47.5439 15.9108 47.2955 15.782C47.0471 15.644 46.7527 15.575 46.4123 15.575H44.4251V18.749ZM57.1363 24.3656C56.3819 24.3656 55.6781 24.2322 55.0249 23.9654C54.3717 23.6986 53.8013 23.326 53.3137 22.8476C52.8261 22.3692 52.4443 21.808 52.1683 21.164C51.9015 20.5108 51.7681 19.807 51.7681 19.0526C51.7681 18.289 51.9015 17.5852 52.1683 16.9412C52.4351 16.2972 52.8123 15.736 53.2999 15.2576C53.7875 14.7792 54.3579 14.4112 55.0111 14.1536C55.6643 13.8868 56.3727 13.7534 57.1363 13.7534C57.8999 13.7534 58.6083 13.8868 59.2615 14.1536C59.9147 14.4204 60.4851 14.793 60.9727 15.2714C61.4603 15.7406 61.8375 16.2972 62.1043 16.9412C62.3803 17.5852 62.5183 18.289 62.5183 19.0526C62.5183 19.807 62.3803 20.5108 62.1043 21.164C61.8283 21.808 61.4465 22.3692 60.9589 22.8476C60.4713 23.326 59.9009 23.6986 59.2477 23.9654C58.6037 24.2322 57.8999 24.3656 57.1363 24.3656ZM57.1363 22.6544C57.6423 22.6544 58.1069 22.567 58.5301 22.3922C58.9533 22.2082 59.3213 21.9552 59.6341 21.6332C59.9561 21.3112 60.1999 20.9294 60.3655 20.4878C60.5403 20.0462 60.6277 19.5678 60.6277 19.0526C60.6277 18.5374 60.5403 18.0636 60.3655 17.6312C60.1999 17.1896 59.9561 16.8078 59.6341 16.4858C59.3213 16.1546 58.9533 15.9016 58.5301 15.7268C58.1069 15.552 57.6423 15.4646 57.1363 15.4646C56.6395 15.4646 56.1795 15.552 55.7563 15.7268C55.3331 15.9016 54.9605 16.1546 54.6385 16.4858C54.3257 16.8078 54.0819 17.1896 53.9071 17.6312C53.7323 18.0636 53.6449 18.5374 53.6449 19.0526C53.6449 19.5678 53.7323 20.0462 53.9071 20.4878C54.0819 20.9294 54.3257 21.3112 54.6385 21.6332C54.9605 21.9552 55.3331 22.2082 55.7563 22.3922C56.1795 22.567 56.6395 22.6544 57.1363 22.6544ZM64.7622 24.2V13.919H68.5986C69.2978 13.919 69.9142 14.0478 70.4478 14.3054C70.9906 14.5538 71.4138 14.9218 71.7174 15.4094C72.021 15.8878 72.1728 16.472 72.1728 17.162C72.1728 17.8428 72.0164 18.427 71.7036 18.9146C71.4 19.393 70.9814 19.761 70.4478 20.0186C69.9142 20.2762 69.2978 20.405 68.5986 20.405H66.639V24.2H64.7622ZM66.639 18.749H68.6262C68.9666 18.749 69.261 18.6846 69.5094 18.5558C69.7578 18.4178 69.951 18.2292 70.089 17.99C70.227 17.7508 70.296 17.4748 70.296 17.162C70.296 16.84 70.227 16.564 70.089 16.334C69.951 16.0948 69.7578 15.9108 69.5094 15.782C69.261 15.644 68.9666 15.575 68.6262 15.575H66.639V18.749ZM78.2462 24.3656C77.455 24.3656 76.7512 24.2 76.1348 23.8688C75.5276 23.5376 75.0492 23.0822 74.6996 22.5026C74.35 21.923 74.1752 21.2652 74.1752 20.5292V13.919H76.052V20.4326C76.052 20.8558 76.144 21.2376 76.328 21.578C76.5212 21.9184 76.7834 22.1852 77.1146 22.3784C77.4458 22.5624 77.823 22.6544 78.2462 22.6544C78.6786 22.6544 79.0558 22.5624 79.3778 22.3784C79.709 22.1852 79.9666 21.9184 80.1506 21.578C80.3438 21.2376 80.4404 20.8558 80.4404 20.4326V13.919H82.3172V20.5292C82.3172 21.2652 82.1424 21.923 81.7928 22.5026C81.4432 23.0822 80.9602 23.5376 80.3438 23.8688C79.7366 24.2 79.0374 24.3656 78.2462 24.3656ZM84.7659 24.2V13.919H86.6427V22.544H91.0449V24.2H84.7659ZM91.992 24.2L95.5386 13.919H97.9674L101.514 24.2H99.4716L98.7402 21.992H94.7658L94.0206 24.2H91.992ZM95.304 20.336H98.202L96.4908 15.2162H97.0152L95.304 20.336ZM103.233 24.2V13.919H107.056C107.755 13.919 108.371 14.0478 108.905 14.3054C109.448 14.5538 109.871 14.9218 110.175 15.4094C110.478 15.8878 110.63 16.472 110.63 17.162C110.63 17.8704 110.46 18.473 110.119 18.9698C109.788 19.4666 109.337 19.8346 108.767 20.0738L111.127 24.2H109.002L106.476 19.6874L107.691 20.405H105.11V24.2H103.233ZM105.11 18.749H107.083C107.424 18.749 107.718 18.6846 107.967 18.5558C108.215 18.4178 108.408 18.2292 108.546 17.99C108.684 17.7508 108.753 17.4748 108.753 17.162C108.753 16.84 108.684 16.564 108.546 16.334C108.408 16.0948 108.215 15.9108 107.967 15.782C107.718 15.644 107.424 15.575 107.083 15.575H105.11V18.749Z" fill="#FCFCFC"/>
</svg>
