<svg width="24" height="25" viewBox="0 0 24 25" fill="none" xmlns="http://www.w3.org/2000/svg">
<path d="M4 12.5H3V8.5C3 7.39543 3.89543 6.5 5 6.5H9M4 12.5V18.5C4 19.6046 4.89543 20.5 6 20.5H18C19.1046 20.5 20 19.6046 20 18.5V12.5M4 12.5H10M20 12.5H21V8.5C21 7.39543 20.1046 6.5 19 6.5H15M20 12.5H14M14 12.5V10.5H10V12.5M14 12.5V14.5H10V12.5M9 6.5V5.5C9 4.39543 9.89543 3.5 11 3.5H13C14.1046 3.5 15 4.39543 15 5.5V6.5M9 6.5H15" stroke="#119BFF" stroke-width="2" stroke-linecap="round" stroke-linejoin="round"/>
</svg>
